<svg xmlns="http://www.w3.org/2000/svg" width="36" height="44" viewBox="0 0 36 44" fill="none">
  <path d="M34.1955 0.52488C33.8863 0.286661 33.5261 0.123355 33.1432 0.0477847C32.7602 -0.0277859 32.365 -0.0135645 31.9885 0.0893328L12.5236 5.32175C11.8482 5.50316 11.2523 5.90386 10.8294 6.46087C10.4066 7.01788 10.1808 7.69961 10.1877 8.3989V30.4692C10.1877 31.1274 9.7619 31.6958 9.10272 31.9175L9.091 31.9223L4.01288 33.6802C2.07049 34.3296 0.812681 36.1333 0.812681 38.2729C0.805568 39.1432 1.00798 40.0024 1.40282 40.778C1.79766 41.5535 2.37334 42.2227 3.08124 42.729C3.99283 43.3912 5.09024 43.7487 6.21698 43.7505C6.80645 43.7494 7.39185 43.6528 7.95038 43.4643L7.98749 43.4516L10.1203 42.6762C11.0455 42.3674 11.8508 41.7767 12.4233 40.987C12.9958 40.1973 13.3068 39.2483 13.3127 38.2729V17.5698C13.3127 16.8579 13.7785 16.2798 14.5002 16.0981L14.5207 16.0923L31.5744 11.5376C31.632 11.5227 31.6923 11.5212 31.7506 11.5331C31.8089 11.5451 31.8637 11.5702 31.9108 11.6066C31.9579 11.643 31.996 11.6896 32.0224 11.743C32.0487 11.7963 32.0625 11.855 32.0627 11.9145V25.7749C32.0627 26.4341 31.6476 26.9839 30.9777 27.2085L30.9533 27.2173L25.9836 28.9858C25.0171 29.3037 24.1768 29.9208 23.5843 30.7479C22.9918 31.5749 22.6778 32.569 22.6877 33.5864C22.679 34.4593 22.8805 35.3214 23.2754 36.0999C23.6703 36.8785 24.2468 37.5504 24.9562 38.0591C25.6508 38.5612 26.4561 38.8886 27.304 39.0135C28.1519 39.1384 29.0174 39.0573 29.8273 38.7768L29.8625 38.7651L31.9953 37.9887C32.9204 37.6801 33.7257 37.0896 34.2982 36.3C34.8707 35.5105 35.1818 34.5616 35.1877 33.5864V2.53953C35.1898 2.14979 35.1013 1.76489 34.9291 1.41524C34.7569 1.0656 34.5057 0.760782 34.1955 0.52488Z" fill="#F6F4F4"/>
</svg>