<svg xmlns="http://www.w3.org/2000/svg" width="50" height="50" viewBox="0 0 50 50" fill="none">
  <path d="M22.6562 40.625C22.157 40.625 21.6709 40.4648 21.2695 40.168C21.2472 40.1525 21.2257 40.1358 21.2051 40.1182L12.2812 32.8125H5.46875C4.84715 32.8125 4.25101 32.5656 3.81147 32.126C3.37193 31.6865 3.125 31.0904 3.125 30.4688V19.5313C3.125 18.9097 3.37193 18.3135 3.81147 17.874C4.25101 17.4344 4.84715 17.1875 5.46875 17.1875H12.2803L21.2031 9.88184C21.2238 9.86417 21.2453 9.84754 21.2676 9.83204C21.6166 9.57531 22.03 9.42037 22.4618 9.38442C22.8936 9.34848 23.3269 9.43293 23.7136 9.6284C24.1003 9.82387 24.4252 10.1227 24.6523 10.4917C24.8794 10.8607 24.9998 11.2855 25 11.7188V38.2813C25 38.9029 24.7531 39.499 24.3135 39.9385C23.874 40.3781 23.2779 40.625 22.6562 40.625ZM31.25 32.8125C30.9834 32.8124 30.7212 32.7442 30.4884 32.6141C30.2556 32.4841 30.06 32.2967 29.9201 32.0697C29.7802 31.8427 29.7008 31.5837 29.6893 31.3173C29.6778 31.0509 29.7347 30.786 29.8545 30.5479C30.7812 28.7051 31.251 26.8369 31.251 25C31.251 23.1074 30.7959 21.2949 29.8594 19.46C29.6799 19.0919 29.6522 18.6681 29.7821 18.2797C29.9119 17.8914 30.1891 17.5696 30.5538 17.3835C30.9186 17.1974 31.3418 17.1619 31.7324 17.2847C32.1231 17.4075 32.4499 17.6787 32.6426 18.04C33.8076 20.3242 34.375 22.6016 34.375 25C34.375 27.3301 33.7891 29.669 32.6465 31.9522C32.5163 32.2109 32.3168 32.4284 32.0702 32.5803C31.8236 32.7322 31.5396 32.8126 31.25 32.8125Z" fill="#F6F4F4"/>
  <path d="M35.9376 37.5C35.6633 37.5001 35.3938 37.4279 35.1562 37.2908C34.9187 37.1537 34.7214 36.9565 34.5842 36.7189C34.447 36.4814 34.3748 36.2119 34.3748 35.9376C34.3747 35.6633 34.4469 35.3938 34.5841 35.1563C36.4308 31.9424 37.5001 29.249 37.5001 25C37.5001 20.6865 36.4327 18.0117 34.588 14.8496C34.3857 14.492 34.3324 14.0691 34.4395 13.6725C34.5467 13.2759 34.8058 12.9375 35.1608 12.7305C35.5157 12.5235 35.9378 12.4646 36.3358 12.5666C36.7338 12.6686 37.0756 12.9232 37.2872 13.2754C39.3478 16.8076 40.6251 20.001 40.6251 25C40.6251 29.9248 39.3497 33.1338 37.2921 36.7188C37.1548 36.9565 36.9574 37.1539 36.7196 37.291C36.4818 37.4282 36.2121 37.5002 35.9376 37.5Z" fill="#F6F4F4"/>
  <path d="M40.6249 42.1875C40.3436 42.1873 40.0675 42.1111 39.8258 41.967C39.5842 41.8229 39.3859 41.6162 39.252 41.3687C39.118 41.1213 39.0534 40.8423 39.0649 40.5611C39.0764 40.28 39.1636 40.0072 39.3173 39.7715C41.9775 35.6904 43.7499 31.6172 43.7499 25C43.7499 18.5059 41.9746 14.3926 39.3076 10.2158C39.1971 10.0427 39.1219 9.84951 39.0861 9.64731C39.0504 9.4451 39.0548 9.23783 39.0991 9.03733C39.1435 8.83684 39.2269 8.64704 39.3446 8.47877C39.4623 8.3105 39.612 8.16706 39.7851 8.05665C39.9582 7.94623 40.1514 7.87099 40.3536 7.83523C40.5558 7.79947 40.7631 7.80389 40.9636 7.84824C41.1641 7.89258 41.3539 7.97598 41.5222 8.09368C41.6904 8.21137 41.8339 8.36106 41.9443 8.53419C44.9033 13.1729 46.8749 17.7481 46.8749 25C46.8749 31.3232 45.4433 36.0967 41.9335 41.4785C41.7916 41.6962 41.5976 41.875 41.3691 41.9988C41.1406 42.1226 40.8848 42.1875 40.6249 42.1875Z" fill="#F6F4F4"/>
</svg>