<?xml version="1.0" standalone="no"?>
<!DOCTYPE svg PUBLIC "-//W3C//DTD SVG 20010904//EN"
 "http://www.w3.org/TR/2001/REC-SVG-20010904/DTD/svg10.dtd">
<svg version="1.0" xmlns="http://www.w3.org/2000/svg"
 width="48.000000pt" height="48.000000pt" viewBox="0 0 64.000000 64.000000"
 preserveAspectRatio="xMidYMid meet">

<g transform="translate(0.000000,64.000000) scale(0.100000,-0.100000)"
fill="#ffffff" stroke="none">
<path d="M13 614 c-4 -12 77 -98 290 -312 281 -281 298 -296 314 -279 16 16
15 19 -26 61 l-44 45 35 40 c81 94 77 215 -9 311 -46 51 -107 80 -170 80 -28
0 -33 -4 -33 -23 0 -20 8 -25 60 -35 48 -10 69 -21 99 -51 70 -70 74 -177 11
-252 -28 -34 -28 -34 -49 -15 l-21 19 31 35 c28 32 31 40 27 89 -6 72 -44 113
-112 120 -44 5 -46 5 -46 -21 0 -22 4 -26 30 -26 40 0 80 -39 80 -77 0 -32
-25 -73 -43 -73 -7 0 -36 24 -65 53 l-52 53 0 137 c0 75 -2 137 -6 137 -3 0
-36 -25 -73 -55 -38 -30 -72 -55 -77 -55 -6 0 -34 25 -64 55 -56 57 -76 66
-87 39z"/>
<path d="M17 462 c-14 -15 -17 -41 -17 -144 0 -145 6 -158 80 -158 40 0 52 -7
142 -80 l98 -81 0 103 0 103 -138 138 c-75 75 -140 137 -143 137 -3 0 -13 -8
-22 -18z"/>
<path d="M370 105 c0 -22 4 -25 37 -25 l36 0 -23 25 c-13 14 -29 25 -37 25 -7
0 -13 -11 -13 -25z"/>
</g>
</svg>
