<?xml version="1.0" standalone="no"?>
<!DOCTYPE svg PUBLIC "-//W3C//DTD SVG 20010904//EN"
 "http://www.w3.org/TR/2001/REC-SVG-20010904/DTD/svg10.dtd">
<svg version="1.0" xmlns="http://www.w3.org/2000/svg"
 width="64.000000pt" height="64.000000pt" viewBox="0 0 64.000000 64.000000"
 preserveAspectRatio="xMidYMid meet">

<g transform="translate(0.000000,64.000000) scale(0.100000,-0.100000)"
fill="#ffffff" stroke="none">
<path d="M222 559 c-88 -75 -96 -79 -141 -79 -75 0 -81 -12 -81 -162 0 -146 6
-158 83 -158 43 0 52 -5 141 -80 l96 -81 0 321 c0 176 -1 320 -2 319 -2 0 -45
-36 -96 -80z"/>
<path d="M370 537 c0 -20 8 -25 60 -35 153 -32 207 -205 99 -313 -30 -30 -51
-41 -99 -51 -52 -10 -60 -15 -60 -35 0 -19 5 -23 33 -23 123 0 237 116 237
240 0 124 -114 240 -237 240 -28 0 -33 -4 -33 -23z"/>
<path d="M370 426 c0 -22 4 -26 30 -26 41 0 80 -39 80 -80 0 -41 -39 -80 -80
-80 -26 0 -30 -4 -30 -26 0 -26 2 -26 46 -21 34 3 55 13 78 36 28 28 31 38 31
91 0 53 -3 63 -31 91 -23 23 -44 33 -78 36 -44 5 -46 5 -46 -21z"/>
</g>
</svg>
